<svg xmlns="http://www.w3.org/2000/svg" width="19.764" height="22.6" viewBox="0 0 19.764 22.6">
  <path id="_4737445_alarm_alert_bell_notification_ring_icon" data-name="4737445_alarm_alert_bell_notification_ring_icon" d="M21.545,14.119l-.417-.335a.958.958,0,0,1-.359-.747V9.165a7.187,7.187,0,0,0-5.792-7.048,1.437,1.437,0,0,0-2.784,0A7.187,7.187,0,0,0,6.4,9.165v3.871a.958.958,0,0,1-.359.747l-.417.335A4.312,4.312,0,0,0,4,17.473v.8a1.916,1.916,0,0,0,1.916,1.916H9.874a3.833,3.833,0,0,0,7.412,0h3.962a1.916,1.916,0,0,0,1.916-1.916v-.786a4.312,4.312,0,0,0-1.619-3.363Zm-7.963,7.024a1.916,1.916,0,0,1-1.648-.958h3.3A1.916,1.916,0,0,1,13.582,21.143Zm7.666-2.875H5.916v-.786a2.4,2.4,0,0,1,.9-1.869l.417-.335a2.875,2.875,0,0,0,1.078-2.242V9.165a5.27,5.27,0,1,1,10.54,0v3.871a2.875,2.875,0,0,0,1.078,2.247l.417.335a2.4,2.4,0,0,1,.9,1.864Z" transform="translate(-3.7 -0.739)" fill="#0f172a" stroke="#0f172a" stroke-width="0.6"/>
</svg>
