<svg id="Asset_1" data-name="Asset 1" xmlns="http://www.w3.org/2000/svg" width="247.857" height="45.835" viewBox="0 0 247.857 45.835">
  <g id="Layer_2">
    <g id="Layer_1-2">
      <g id="Group_15340" data-name="Group 15340">
        <g id="Group_15339" data-name="Group 15339">
          <path id="Path_2874" data-name="Path 2874" d="M234.01,9.51V20.162a6.966,6.966,0,0,1-6.958,6.958h-8.894a6.967,6.967,0,0,1-6.959-6.958V9.51h1.45V20.162a5.515,5.515,0,0,0,5.509,5.509h8.894a5.516,5.516,0,0,0,5.509-5.509V9.51Z" transform="translate(-179.942 -8.102)" fill="#fff"/>
          <path id="Path_2875" data-name="Path 2875" d="M1337.38,9.51V20.162a6.966,6.966,0,0,1-6.958,6.958h-8.893a6.967,6.967,0,0,1-6.959-6.958V9.51h1.45V20.162a5.515,5.515,0,0,0,5.509,5.509h8.893a5.515,5.515,0,0,0,5.509-5.509V9.51Z" transform="translate(-1120.009 -8.102)" fill="#fff"/>
          <rect id="Rectangle_1443" data-name="Rectangle 1443" width="1.45" height="16.884" transform="translate(74.611 2.133)" fill="#fff"/>
          <rect id="Rectangle_1444" data-name="Rectangle 1444" width="22.809" height="1.449" transform="translate(129.509 9.85)" fill="#fff"/>
          <rect id="Rectangle_1445" data-name="Rectangle 1445" width="1.45" height="16.884" transform="translate(128.785 2.133)" fill="#fff"/>
          <rect id="Rectangle_1446" data-name="Rectangle 1446" width="1.449" height="16.884" transform="translate(150.87 2.133)" fill="#fff"/>
          <rect id="Rectangle_1447" data-name="Rectangle 1447" width="22.809" height="1.449" transform="translate(63.932 0.684)" fill="#fff"/>
          <path id="Path_2876" data-name="Path 2876" d="M1532.023,28.37H1516.4V26.921h15.628a5.738,5.738,0,0,0,5.731-5.734v-.013H1515.67v-2.7a7.188,7.188,0,0,1,7.181-7.181h15.628v1.449h-15.628a5.739,5.739,0,0,0-5.732,5.734v1.252H1539.2v1.464a7.188,7.188,0,0,1-7.181,7.181" transform="translate(-1291.346 -9.619)" fill="#fff"/>
          <path id="Path_2877" data-name="Path 2877" d="M1.775,27.119l10.667-15.1,10.667,15.1h1.773L12.441,9.51,0,27.119Z" transform="translate(0 -8.102)" fill="#fff"/>
          <path id="Path_2878" data-name="Path 2878" d="M1101.263,27.119l10.667-15.1,10.668,15.1h1.773L1111.93,9.51l-12.44,17.609Z" transform="translate(-936.762 -8.102)" fill="#fff"/>
          <path id="Path_2879" data-name="Path 2879" d="M668.9,19.015H656.961a6.107,6.107,0,0,1-6.1-6.1V6.1a6.107,6.107,0,0,1,6.1-6.1H668.9A6.107,6.107,0,0,1,675,6.1v6.817a6.107,6.107,0,0,1-6.1,6.1M656.961,1.49A4.614,4.614,0,0,0,652.352,6.1v6.817a4.614,4.614,0,0,0,4.609,4.607H668.9a4.614,4.614,0,0,0,4.609-4.607V6.1A4.614,4.614,0,0,0,668.9,1.492H656.961Z" transform="translate(-554.531)" fill="#fff"/>
          <path id="Path_2880" data-name="Path 2880" d="M481.1,247.768a4.864,4.864,0,0,1,0-9.728,5.142,5.142,0,0,1,3.295,1.011v.669a5.107,5.107,0,0,0-3.295-1.154,4.332,4.332,0,0,0,0,8.664A4.856,4.856,0,0,0,484.392,246v.619a4.468,4.468,0,0,1-3.295,1.154" transform="translate(-405.789 -202.809)" fill="#fff"/>
          <path id="Path_2881" data-name="Path 2881" d="M479.291,246.276a5.178,5.178,0,0,1,0-10.356,5.428,5.428,0,0,1,3.491,1.08l.118.095v1.495l-.517-.435a4.781,4.781,0,0,0-3.093-1.082,4.019,4.019,0,0,0,0,8.037,4.593,4.593,0,0,0,3.1-1.166l.508-.4v1.413l-.12.095a4.774,4.774,0,0,1-3.49,1.224" transform="translate(-403.983 -201.003)" fill="#fff"/>
          <path id="Path_2882" data-name="Path 2882" d="M582.516,246.657l-1.076-2.834h-4.267l-1.088,2.834h-.525l3.74-9.767,3.753,9.767Zm-3.216-8.387-1.915,5h3.833l-1.917-5Z" transform="translate(-490.375 -201.829)" fill="#fff"/>
          <path id="Path_2883" data-name="Path 2883" d="M580.887,241.937h-1.212L578.6,239.1h-3.835l-1.088,2.836h-1.2l4.2-10.957,4.211,10.957Zm-5.671-4.015h2.92l-1.461-3.81-1.461,3.81Z" transform="translate(-487.751 -196.794)" fill="#fff"/>
          <path id="Path_2884" data-name="Path 2884" d="M678.534,248.4l-3.373-4.739h-.354V248.4h-.527V238.94h2.3a2.331,2.331,0,0,1,2.559,2.349c0,2.113-1.68,2.375-3.373,2.375l3.4,4.739h-.63Zm-1.969-8.926h-1.758v3.648h1.772a1.836,1.836,0,0,0,2.008-1.852,1.813,1.813,0,0,0-2.022-1.8" transform="translate(-574.484 -203.576)" fill="#fff"/>
          <path id="Path_2885" data-name="Path 2885" d="M677.978,246.911h-1.4l-3.252-4.567v4.567H672.17V236.82h2.611a2.626,2.626,0,0,1,2.873,2.664c0,2.273-1.846,2.626-3.083,2.68l3.407,4.748Zm-4.656-5.9h1.459a1.522,1.522,0,1,0-.013-3.022h-1.446Z" transform="translate(-572.687 -201.77)" fill="#fff"/>
          <path id="Path_2886" data-name="Path 2886" d="M825.174,248.4l-3.373-4.739h-.355V248.4h-.525V238.94h2.3a2.331,2.331,0,0,1,2.559,2.349c0,2.113-1.68,2.375-3.373,2.375l3.4,4.739h-.63Zm-1.969-8.926h-1.76v3.648h1.773a1.836,1.836,0,0,0,2.008-1.852,1.814,1.814,0,0,0-2.022-1.8" transform="translate(-699.421 -203.576)" fill="#fff"/>
          <path id="Path_2887" data-name="Path 2887" d="M824.608,246.911h-1.4l-3.252-4.567v4.567H818.8V236.82h2.612a2.626,2.626,0,0,1,2.873,2.664c0,2.273-1.846,2.626-3.084,2.68l3.407,4.748Zm-4.655-5.9h1.459a1.522,1.522,0,1,0-.013-3.022h-1.446Z" transform="translate(-697.615 -201.77)" fill="#fff"/>
          <path id="Path_2888" data-name="Path 2888" d="M902.18,248.4V238.94h4.5v.537h-3.964v3.453h3.964v.577h-3.964v4.359h3.964v.537Z" transform="translate(-768.654 -203.576)" fill="#fff"/>
          <path id="Path_2889" data-name="Path 2889" d="M905.19,246.911h-5.13V236.82h5.13v1.165h-3.964v2.825h3.964v1.2h-3.964v3.73h3.964Z" transform="translate(-766.848 -201.77)" fill="#fff"/>
          <path id="Path_2890" data-name="Path 2890" d="M983.165,239.986v8.035h-.525V238.49l7,8.284v-8.217h.537v9.622Z" transform="translate(-837.206 -203.193)" fill="#fff"/>
          <path id="Path_2891" data-name="Path 2891" d="M988.682,244.086l-7.009-8.192v7.5H980.52v-10.7l7,8.284V233.3h1.165Z" transform="translate(-835.4 -198.251)" fill="#fff"/>
          <path id="Path_2892" data-name="Path 2892" d="M1084.081,239.479V248.4h-.537v-8.926h-2.073v-.539h4.686v.539Z" transform="translate(-921.409 -203.576)" fill="#fff"/>
          <path id="Path_2893" data-name="Path 2893" d="M1082.581,246.911h-1.168v-8.926h-2.073V236.82h5.315v1.165h-2.073Z" transform="translate(-919.594 -201.77)" fill="#fff"/>
          <path id="Path_2894" data-name="Path 2894" d="M1157.1,246.657l-1.076-2.834h-4.267l-1.088,2.834h-.525l3.74-9.767,3.753,9.767Zm-3.216-8.387-1.917,5h3.833Z" transform="translate(-979.915 -201.829)" fill="#fff"/>
          <path id="Path_2895" data-name="Path 2895" d="M1155.467,241.937h-1.212l-1.075-2.836h-3.835l-1.088,2.836h-1.2l4.2-10.957,4.211,10.957Zm-5.672-4.015h2.92l-1.461-3.81-1.461,3.81Z" transform="translate(-977.291 -196.794)" fill="#fff"/>
          <path id="Path_2896" data-name="Path 2896" d="M1248.51,248.4V238.94h.525v8.926h2.639v.537Z" transform="translate(-1063.726 -203.576)" fill="#fff"/>
          <path id="Path_2897" data-name="Path 2897" d="M1250.182,246.911h-3.792V236.82h1.153v8.925h2.639Z" transform="translate(-1061.92 -201.77)" fill="#fff"/>
        </g>
      </g>
    </g>
  </g>
</svg>
