<?xml version="1.0" encoding="utf-8"?>
<!-- Generator: Adobe Illustrator 24.1.1, SVG Export Plug-In . SVG Version: 6.00 Build 0)  -->
<svg version="1.1" id="Layer_1" xmlns="http://www.w3.org/2000/svg" xmlns:xlink="http://www.w3.org/1999/xlink" x="0px" y="0px"
	 viewBox="0 0 412.77 412.68" style="enable-background:new 0 0 412.77 412.68;" xml:space="preserve">
<g>
	<path d="M206.39,412.68C92.77,412.68-0.11,319.77,0,206.19C0.11,92.43,92.83-0.12,206.57,0c113.6,0.12,205.99,92.47,206.2,206.09
		C412.98,319.52,319.92,412.67,206.39,412.68z M356.41,113.48c-18.77-41.59-100.08-90.65-137.32-82.79c0,5.04,0.04,10.18-0.01,15.32
		c-0.09,8.93-5.22,14.69-12.89,14.57c-7.51-0.12-12.42-5.74-12.52-14.44c-0.06-5.29-0.01-10.58-0.01-15.79
		c-42.6-4.4-119.46,42.2-137.11,82.88c5.41,3.14,10.9,6.23,16.3,9.48c7.15,4.29,9.43,11.39,5.85,17.79
		c-3.69,6.62-11.18,8.35-18.6,4.22c-5.21-2.91-10.36-5.93-16.08-9.22c-19.35,47.21-19.35,93.81-0.02,141.01
		c6.14-3.48,11.68-6.81,17.41-9.8c6.87-3.59,14.18-1.28,17.46,5.22c3.14,6.21,1.19,13.01-5.06,16.85
		c-5.77,3.54-11.7,6.84-18.12,10.57c38.16,55.72,89.93,85.42,157.27,83.16c62.33-2.09,109.86-31.99,144.08-83.47
		c-0.51-0.76-0.57-0.95-0.7-1.03c-5.02-2.95-10.06-5.86-15.06-8.85c-7.45-4.45-9.71-11.59-5.8-18.15c3.81-6.4,10.98-8,18.28-3.98
		c4.92,2.71,9.77,5.54,15.27,8.67c19-46.99,18.87-93.23-0.22-139.9c-5.47,3.12-10.34,5.98-15.3,8.7c-7.4,4.05-14.92,2.22-18.53-4.39
		c-3.52-6.45-1.15-13.56,5.99-17.74C346.12,119.37,351.29,116.43,356.41,113.48z"/>
	<path d="M210.39,231.8c-13.42-0.34-24.67-10.57-25.68-23.92c-0.3-3.9-1.89-5.78-5.09-7.56c-21.83-12.11-43.56-24.39-65.31-36.64
		c-1.74-0.98-3.53-1.94-5.04-3.21c-3.9-3.28-4.85-8.88-2.42-13.13c2.58-4.51,7.97-6.46,12.96-4.61c1.24,0.46,2.39,1.16,3.55,1.82
		c22.18,12.49,44.39,24.95,66.51,37.55c2.88,1.64,4.95,1.92,8.06,0.09c10.04-5.89,22.18-4.48,30.68,2.96
		c8.28,7.24,11.19,19.36,7.12,29.66C231.65,225.2,221.36,232.08,210.39,231.8z"/>
</g>
</svg>
