<?xml version="1.0" encoding="utf-8"?>
<!-- Generator: Adobe Illustrator 24.1.1, SVG Export Plug-In . SVG Version: 6.00 Build 0)  -->
<svg version="1.1" id="Layer_1" xmlns="http://www.w3.org/2000/svg" xmlns:xlink="http://www.w3.org/1999/xlink" x="0px" y="0px"
	 viewBox="0 0 502.33 390.25" style="enable-background:new 0 0 502.33 390.25;" xml:space="preserve">
<g>
	<path d="M0,240.89c0-25.83,0-51.66,0-77.49c0-6.88,1.13-9.49,7.44-9.87c12.1-0.72,24.32-0.87,36.39,0.03
		c7.57,0.57,8.34,2.64,8.37,10.54c0.05,14.83,0.13,29.67-0.06,44.5c-0.06,4.65,1.43,6.74,6.3,6.5c5.65-0.27,11.33-0.18,16.99-0.02
		c4,0.11,5.76-1.47,5.69-5.56c-0.14-8-0.18-16,0-24c0.16-6.96,1.76-13.62,5.6-19.55c6.01-9.27,15.35-12.26,25.65-12.87
		c6.81-0.4,13.68,0.18,20.49-0.22c2.32-0.13,5.23-1.31,6.71-3.01c13.63-15.62,26.94-31.52,40.5-47.21
		c5.94-6.88,13.34-10.83,22.8-10.71c15.5,0.2,31,0.06,46.5,0.05c6.32,0,6.73-0.44,6.74-6.92c0.01-8.67,0.01-17.33,0-26
		c-0.01-6.66-0.31-6.95-7.21-6.95c-11.17-0.01-22.33,0-33.5,0c-8.23-0.01-10.99-2.33-11.22-10.59c-0.29-10.66-0.25-21.33-0.01-32
		c0.16-6.85,3.3-9.55,10.25-9.55C259.58,0,304.75,0,349.91,0.01c6.33,0,9.2,2.57,9.29,8.85c0.16,11.5,0.17,23,0,34.5
		c-0.09,6.19-2.9,8.72-9.39,8.77c-11.83,0.09-23.67,0.15-35.5-0.04c-4.53-0.07-6.23,1.65-6.13,6.16c0.21,9.16,0.24,18.34-0.01,27.5
		c-0.13,4.81,1.76,6.37,6.46,6.35c29.83-0.14,59.66-0.15,89.49-0.04c17.07,0.06,26.56,11.71,26.98,27.05
		c0.62,22.82,0.24,45.66,0.09,68.49c-0.03,4.64,1.42,6.6,6.29,6.52c13.73-0.23,12.7,1.29,12.65-12.59c-0.03-9-0.33-18.01,0.08-27
		c0.46-10.18,1.46-10.95,11.18-11.39c10.31-0.47,20.66-0.15,30.99-0.09c7.27,0.04,9.88,2.67,9.88,9.79
		c0.03,52.33,0.05,104.66,0.07,156.98c0,6.24-2.07,8.35-8.26,8.36c-11.33,0.03-22.67,0.02-34,0.01c-7.2-0.01-9.88-2.57-9.92-9.75
		c-0.07-11.67-0.17-23.34,0.05-35c0.09-4.83-1.8-6.4-6.48-6.33c-13.46,0.19-12.97-1.14-12.34,12.27
		c0.62,13.3-3.74,23.88-13.56,32.89c-10.06,9.23-19.48,19.17-29.06,28.91c-13.41,13.63-26.65,27.42-40.11,41
		c-5.15,5.2-11.65,7.97-18.99,7.98c-42.66,0.08-85.33,0.18-127.99-0.07c-8.83-0.05-16.29-3.71-21.83-11.29
		c-4.56-6.23-10.13-11.72-15.18-17.6c-7.72-8.98-15.39-18.01-23.08-27.03c-2.76-3.24-5.69-5.17-10.51-5.18
		c-9.68-0.01-19.6,0-28.98-2.04c-12.07-2.62-18.8-11.57-19.91-23.85c-0.89-9.88-0.95-19.85-1.02-29.78
		c-0.03-4.46-1.52-6.39-6.11-6.2c-5.66,0.23-11.34,0.2-16.99,0.01c-4.27-0.15-5.95,1.57-5.91,5.86c0.14,14.83,0.06,29.67,0.05,44.5
		c-0.01,8.7-3.12,11.37-11.61,11.63c-9.99,0.31-20,0.15-30,0.05c-8.09-0.09-10.51-2.64-10.52-10.78
		c-0.02-25.83-0.01-51.66-0.01-77.49C0.05,240.89,0.02,240.89,0,240.89z M272.77,230.25c17.34-27.79,34.02-54.54,51.24-82.14
		c-17.77,0-34.37-0.07-50.97,0.15c-1.25,0.02-2.92,1.91-3.63,3.32c-16.03,31.89-31.96,63.84-47.88,95.79
		c-0.67,1.34-1.01,2.83-1.72,4.9c17.3,0,33.72,0,50.79,0c-10.25,30.8-20.31,61.03-30.37,91.25c0.36,0.19,0.71,0.38,1.07,0.57
		c27.4-37.68,54.8-75.36,82.77-113.84C306.55,230.25,290.28,230.25,272.77,230.25z"/>
</g>
</svg>
