<?xml version="1.0" encoding="utf-8"?>
<!-- Generator: Adobe Illustrator 24.1.1, SVG Export Plug-In . SVG Version: 6.00 Build 0)  -->
<svg version="1.1" id="Layer_1" xmlns="http://www.w3.org/2000/svg" xmlns:xlink="http://www.w3.org/1999/xlink" x="0px" y="0px"
	 viewBox="0 0 142.18 85.3" style="enable-background:new 0 0 142.18 85.3;" xml:space="preserve">
<g>
	<path d="M8.11,72.05c-2.58,0-5.25,0-8.11,0c-0.03-9.58,1.71-18.82,5.43-27.66c6.31-15.04,16.54-26.72,30.71-34.85
		c28-16.08,62.54-11.15,84.84,9.84c-2.16,1.77-4.3,3.54-6.38,5.25C93.72,7.9,70.71,3.25,46.08,14.29
		C21.53,25.28,9.57,45.4,8.11,72.05z"/>
	<path d="M138.35,10.5c-0.72,0.99-1.38,2.04-2.18,2.96c-5.59,6.51-11.11,13.1-16.85,19.47C107.7,45.85,95.94,58.63,84.26,71.5
		c-0.37,0.41-0.61,1.11-0.6,1.66c0.21,6.68-5,12.13-11.66,12.13c-6.67,0.01-11.91-5.38-11.72-12.06
		c0.19-6.57,5.89-11.67,12.56-11.17c0.92,0.07,1.55-0.16,2.24-0.73c17-14.16,34.01-28.32,51.06-42.42c3.29-2.72,6.78-5.2,10.2-7.76
		c0.52-0.39,1.13-0.66,1.69-0.99C138.14,10.27,138.25,10.39,138.35,10.5z"/>
	<path d="M128.24,27.15c10.34,13.27,15.47,28.16,15.58,44.89c-2.75,0-5.36,0-8.11,0c-0.14-14.25-4.51-27.07-13.1-38.5
		C124.47,31.42,126.31,29.34,128.24,27.15z"/>
</g>
</svg>
