<?xml version="1.0" encoding="utf-8"?>
<!-- Generator: Adobe Illustrator 24.1.1, SVG Export Plug-In . SVG Version: 6.00 Build 0)  -->
<svg version="1.1" id="Layer_1" xmlns="http://www.w3.org/2000/svg" xmlns:xlink="http://www.w3.org/1999/xlink" x="0px" y="0px"
	 viewBox="0 0 260.98 343.78" style="enable-background:new 0 0 260.98 343.78;" xml:space="preserve">
<g>
	<path d="M130.44,343.81c-21.13,0-42.26-0.06-63.39,0.07c-3.4,0.02-4.58-0.94-4.55-4.46c0.14-20.75,0.13-41.5,0.01-62.26
		c-0.02-3.46,1.14-4.53,4.56-4.51c38.38,0.18,76.76,0.25,115.15,0.32c4.12,0.01,8.25-0.09,12.36-0.28c2.73-0.12,3.79,0.98,3.78,3.73
		c-0.06,21.25-0.08,42.5,0.02,63.76c0.01,3.18-1.48,3.68-4.16,3.67C172.95,343.79,151.69,343.81,130.44,343.81z"/>
	<path d="M130.46,264.99c-14.75,0-29.5-0.1-44.25,0.07c-3.52,0.04-4.45-1.14-4.43-4.55c0.12-28.87,0.13-57.74-0.01-86.61
		c-0.02-3.74,1.25-4.65,4.78-4.64c29.25,0.11,58.5,0.11,87.75,0c3.46-0.01,4.84,0.79,4.82,4.6c-0.15,28.87-0.15,57.74,0,86.61
		c0.02,3.77-1.29,4.62-4.78,4.59C159.71,264.9,145.09,264.99,130.46,264.99z"/>
	<path d="M130.35,0.01c11.62,0,23.24-0.03,34.87,0.01c10.76,0.04,18.27,7.18,19.29,17.94c1.31,13.92,2.68,27.84,4.23,41.74
		c1.48,13.25-6.76,22.55-20.14,22.47c-23.73-0.13-47.47-0.23-71.2-0.32c-2.11-0.01-4.23,0.27-6.34,0.27
		c-11.54-0.01-19.98-9.1-19.01-20.76c0.9-10.82,2.14-21.62,3.23-32.43c0.38-3.73,0.8-7.45,1.13-11.18
		C77.32,7.2,84.93,0.07,95.48,0.02C107.1-0.03,118.73,0.01,130.35,0.01z"/>
	<path d="M130.63,92.31c14.74,0,29.49,0.08,44.23-0.06c3.26-0.03,4.31,0.92,4.29,4.25c-0.14,20.36-0.13,40.73-0.01,61.09
		c0.02,3.26-1.01,4.34-4.29,4.33c-29.61-0.1-59.23-0.1-88.84,0c-3.29,0.01-4.3-1.09-4.28-4.34c0.12-20.36,0.13-40.73-0.01-61.09
		c-0.02-3.34,1.06-4.26,4.3-4.23C100.89,92.39,115.76,92.31,130.63,92.31z"/>
	<path d="M186.46,178.56c0-27.11,0-54.21,0-81.32c0-4.95,0.24-5.2,5.11-4.46c3.2,0.49,6.44,0.92,9.55,1.78
		c15.03,4.16,24.13,15.14,24.54,30.71c0.29,11.09-0.82,22.21-0.77,33.31c0.12,28.46,4.31,56.46,10.24,84.23
		c1.13,5.31,0.97,5.44-4.42,6.37c-10.39,1.78-19.28,6.84-27.08,13.66c-4.95,4.32-10.41,2.04-15.68,2.22
		c-0.45,0.01-1.43-2.63-1.43-4.05c-0.09-22.48-0.06-44.97-0.06-67.45C186.46,188.55,186.46,183.56,186.46,178.56z"/>
	<path d="M74.42,179.11c0,27.12,0,54.24,0,81.36c0,4.94-0.03,4.65-5.06,5.02c-5.77,0.42-10.39-1-14.94-4.9
		c-7.38-6.32-16.01-10.65-25.9-11.73c-3.17-0.34-3.53-2.02-3.03-4.65c2.13-11.28,4.48-22.53,6.21-33.87
		c3.84-25.13,5.73-50.39,3.49-75.82c-0.68-7.69-0.01-15.2,3.19-22.37c5.36-12.02,15.48-17.25,27.71-18.96
		c8.31-1.17,8.37-2.91,8.35,7.18C74.38,126.62,74.42,152.86,74.42,179.11z"/>
	<path d="M55.22,306.81c0,10.87-0.13,21.75,0.08,32.62c0.07,3.6-1.2,4.43-4.59,4.34c-24.78-0.69-43.72-16.79-48.7-41.3
		c-1.58-7.77-2.75-15.45-1.44-23.39c2.95-17.85,19.94-27.76,36.44-20.59c5.86,2.54,11.06,6.67,16.34,10.4
		c1.13,0.8,1.77,2.98,1.79,4.54C55.29,284.56,55.22,295.69,55.22,306.81z"/>
	<path d="M205.66,306.12c0-10.75-0.04-21.49,0.05-32.24c0.01-1.4,0.18-3.3,1.06-4.12c6.86-6.36,14.46-11.66,23.94-13.14
		c12.92-2.02,24.78,5.38,28.54,18.22c5.5,18.78-1.51,53.55-29.11,64.43c-6.27,2.47-13.27,3.09-19.95,4.46
		c-3.36,0.69-4.65-0.66-4.59-4.24C205.79,328.37,205.66,317.24,205.66,306.12z"/>
</g>
</svg>
