<?xml version="1.0" encoding="utf-8"?>
<!-- Generator: Adobe Illustrator 24.1.1, SVG Export Plug-In . SVG Version: 6.00 Build 0)  -->
<svg version="1.1" id="Layer_1" xmlns="http://www.w3.org/2000/svg" xmlns:xlink="http://www.w3.org/1999/xlink" x="0px" y="0px"
	 viewBox="0 0 312.05 372.04" style="enable-background:new 0 0 312.05 372.04;" xml:space="preserve">
<g>
	<path d="M312.05,186.11c0,59,0,118,0,177c0,7.34-1.62,8.93-9.08,8.93c-66,0-132,0-198,0c-7.33,0-9.12-1.63-8.88-9.08
		c0.58-17.77-1.68-34.98-10.46-50.73c-16.94-30.4-42.92-46.45-77.7-48.14c-5.92-0.29-7.87-2.06-7.87-7.92
		C0.04,217.42,0.07,178.67,0,139.92c-0.01-3.13,1.05-5.43,3.23-7.6C46.31,89.31,89.35,46.26,132.36,3.18
		c2.19-2.19,4.51-3.18,7.63-3.18c54.75,0.06,109.5,0.04,164.25,0.05c5.83,0,7.81,2.01,7.81,7.94
		C312.05,67.36,312.05,126.74,312.05,186.11z M164.28,167.29c33.74,0,67.47,0,101.21,0c16.71,0,27.79-11.01,27.8-27.61
		c0.01-31.11,0.01-62.23,0-93.34c-0.01-16.43-11.09-27.54-27.48-27.55c-36.49-0.01-72.97,0.09-109.46-0.07
		c-8.54-0.04-15.41,2.8-21.42,8.84c-29.15,29.34-58.31,58.67-87.78,87.69c-7.29,7.18-10.82,14.95-10.5,25.24
		c0.51,16.18,10.67,26.8,26.78,26.8C97.06,167.3,130.67,167.29,164.28,167.29z M74.31,219.79c7.24,0,14.49,0.04,21.73-0.01
		c7.74-0.05,13.4-5.37,13.49-12.57c0.09-7.37-5.62-12.88-13.53-12.91c-14.48-0.05-28.97-0.05-43.46,0
		c-7.74,0.03-13.4,5.37-13.49,12.57c-0.09,7.36,5.62,12.86,13.53,12.91C59.83,219.83,67.07,219.79,74.31,219.79z"/>
	<path d="M164.67,162.04c-33.12,0-66.24,0.05-99.35-0.02c-13.53-0.03-23.81-10.75-23.24-24.04c0.25-5.71,2.35-10.75,6.39-14.8
		c30.72-30.78,61.47-61.54,92.26-92.26c4.72-4.71,10.6-6.89,17.29-6.89c35.24,0.01,70.49-0.04,105.73,0.03
		c13.8,0.03,24.22,10.41,24.26,24.21c0.09,29.87,0.09,59.74,0,89.61c-0.04,13.75-10.52,24.1-24.36,24.13
		C230.66,162.09,197.67,162.04,164.67,162.04z M164.27,150.04c32.61,0,65.22,0,97.82,0c9.4,0,13.95-4.6,13.95-14.08
		c0.01-28.49,0.01-56.97,0-85.46c0-9.98-4.44-14.46-14.33-14.46c-33.86,0-67.72,0.06-101.57-0.07c-5.25-0.02-9.27,1.63-12.97,5.35
		c-29.25,29.41-58.61,58.7-87.94,88.04c-0.97,0.97-1.98,1.92-2.82,3c-4.7,6.07-2.08,14.71,5.24,16.99c1.86,0.58,3.93,0.65,5.9,0.65
		C99.8,150.06,132.03,150.04,164.27,150.04z"/>
	<path d="M73.95,215.29c-6.87,0-13.75,0.04-20.62-0.01c-5.44-0.04-9.09-3.5-9.02-8.39c0.07-4.69,3.7-8.06,8.96-8.08
		c13.75-0.05,27.49-0.05,41.24,0c5.44,0.02,9.12,3.54,9.02,8.39c-0.09,4.72-3.7,8.03-8.96,8.07
		C87.7,215.34,80.82,215.29,73.95,215.29z"/>
</g>
</svg>
